# xmcd
# 
# Track frame offsets:
#     183
#     12163
#     34428
#     49773
#     57988
#     72545
#     93500
#     111273
#     120753
#     135188
#     148785
# 
# Disc length: 2173
# 
# Revision: 6
# Processed by: cddbd v1.5.2PL0 Copyright (c) Steve Scherf et al.
# Submitted via: fre:ac v1.0.31
# 
DISCID=98087b0b
DTITLE=Tracy Chapman - Tracy Chapman
DYEAR=1988
DGENRE=Vocal
TTITLE0=Talkin' Bout A Revolution
TTITLE1=Fast Car
TTITLE2=Across The Lines
TTITLE3=Behind The Wall
TTITLE4=Baby Can I Hold You
TTITLE5=Mountains O' Things
TTITLE6=She's Got Her Ticket
TTITLE7=Why?
TTITLE8=For My Lover
TTITLE9=If Not Now...
TTITLE10=For You
EXTD=
EXTT0=
EXTT1=
EXTT2=
EXTT3=
EXTT4=
EXTT5=
EXTT6=
EXTT7=
EXTT8=
EXTT9=
EXTT10=
PLAYORDER=
